<?xml version="1.0" encoding="utf-8"?>
<!-- Generator: Adobe Illustrator 21.1.0, SVG Export Plug-In . SVG Version: 6.00 Build 0)  -->
<svg version="1.1" xmlns="http://www.w3.org/2000/svg" xmlns:xlink="http://www.w3.org/1999/xlink" x="0px" y="0px"
	 viewBox="0 0 437.9 399.6" style="enable-background:new 0 0 437.9 399.6;" xml:space="preserve">
<style type="text/css">
	.st0{fill:#D9D9D9;}
	.st1{fill:none;}
	.st2{fill:#020203;}
	.st3{font-family:'Helvetica';}
	.st4{font-size:24px;}
	.st5{fill:#010202;}
</style>
<g id="Calque_2">
	<rect class="st0" width="437.9" height="399.6"/>
</g>
<g id="Calque_1">
	<rect x="13.6" y="339.3" class="st1" width="350.6" height="47"/>
	<text transform="matrix(1 0 0 1 232.0105 356.5005)" class="st2 st3 st4">Complication</text>
	<g>
		<g>
			<path class="st2" d="M320.2,77.5c1.1,15.4-0.9,31.5-1.8,46.8c-1.6,26.3-3.1,52.6-4.1,78.9c-1,25.7-1.7,51.6-0.1,77.2
				c0.6,8.9,1.3,17.9,3.4,26.6c1.1,4.6,2.6,11,6.9,13.7c2,1.3,4.7,2.2,7,2.6c9.7,1.7,20.4,0.9,30.2,0.9c13.7,0,27.5-0.3,41.2-0.9
				c-1.5,0.1-3.1-1.9-4.7-1.8c-10.5,0.5-20.9,0.7-31.4,0.8c-8.9,0.1-17.9,0.1-26.8-0.2c-4.1-0.1-8.4-0.8-12.5-0.6
				c-0.3,0-1.3-0.3-1.6-0.2c4.7-1.8,4.2,2.7,2.6,0.8c-8.6-10.6-8.8-26.7-9.7-39.8c-3.2-50,0.9-100.5,3.9-150.4
				c0.7-11.1,1.3-22.3,1.9-33.4c0.3-6.4,0.8-12.8,0.3-19.2C324.8,78.6,320.2,78.2,320.2,77.5L320.2,77.5z"/>
		</g>
	</g>
	<g>
		<g>
			<path class="st2" d="M26.6,327.9c22.8-7.3,45.7-14.6,68.5-22c11.4-3.6,22.7-7.3,34.1-10.9c7.3-2.3,14.5-3.8,20.4-9.2
				c9.7-8.7,11.6-24.1,11.9-36.5c0.3-11.3,0.1-22.7-0.1-34c-0.4-33.6-1.3-67.1-2.2-100.6c-0.6-22.4-1.3-44.8-2-67.1
				c0.1,3.6-2.4,7.3-2.6,11c-2.7,49-5.5,97.9-8.2,146.9c-0.4,6.8-0.8,13.6-1.1,20.4c0.2-3.6,2.1-7.3,2.6-11
				c4.9-36,9.7-72.1,14.6-108.1c0.7-5.1,1.4-10.1,2.1-15.2c-0.9,3.7-1.7,7.3-2.6,11c0.4,36.2,0.8,72.5,1.2,108.7
				c0.1,5.1,0.1,10.2,0.2,15.3c0.9-3.7,1.7-7.3,2.6-11C151,171.8,136.1,127.9,121.3,84c-2.1-6.1-4.1-12.2-6.2-18.4
				c-0.9,3.7-1.7,7.3-2.6,11c27.3,40.3,54.5,80.6,81.8,120.9c3.9,5.7,7.7,11.4,11.6,17.1c0.9-3.7,1.7-7.3,2.6-11
				c-18.3-8.4-36.7-16.8-55-25.2C124.2,165,95,151.6,65.8,138.2c-6.7-3.1-13.4-6.1-20-9.2c-0.9,3.7-1.7,7.3-2.6,11
				c23,6.5,46,13.1,69,19.6c36.6,10.4,73.3,20.8,109.9,31.2c8.4,2.4,16.8,4.8,25.2,7.2c-0.4-0.1,3.2-10.6,2.6-11
				c-39.2-21.1-78.4-42.1-117.6-63.2c-5.5-2.9-10.9-5.9-16.4-8.8c-0.9,3.7-1.7,7.3-2.6,11c28.8,10.5,57.5,21,86.3,31.5
				c4.1,1.5,8.3,3,12.4,4.5c0.9-3.7,1.7-7.3,2.6-11c-23.7,12.8-47.3,25.6-71,38.4c-3.4,1.9-6.9,3.7-10.3,5.6
				c-0.9,3.7-1.7,7.3-2.6,11c19.4-23.1,38.5-46.5,57.3-70c9.8-12.3,20.1-24.6,28.7-37.8c0.9-1.4,1.9-2.8,2.5-4.3
				c0.5-1.2,0.7-2.6,1-3.8c0.4-1.7,2.3-6.1,1.7-7.6c-0.6-1.5-2.4,0.3-3.6,1.1c-9.9,6.6-18.9,14.6-28,22.2
				c-14.9,12.5-29.6,25.3-44,38.3c-15.2,13.6-30.1,27.4-44.7,41.6c-10.9,10.6-21.9,21.3-31.3,33.2c-2.3,2.9-4.7,5.9-5.8,9.4
				c-0.8,2.3-1.2,4.8-1.7,7.1c-0.3,1.3-1.2,3.2-1,4.6c0.1,0.7-0.1,1.3,0.7,1.5c1.7,0.6,6.5-4.4,7.6-5.3c5.2-4.3,10.1-8.8,15.1-13.4
				c28.5-26.2,55.8-53.7,84.5-79.7c4.6-4.2,9.2-8.4,14.1-12.2c0.9-0.7,4.9-4.5,6.3-3.6c1.6,1.1-0.6,9.6-0.8,11
				c-1.3,8.6-2.8,17.1-4.1,25.7c-3.6,23.3-6.3,46.9-5.5,70.6c0.7,21.6,4.1,47,21,62.3c2.6,2.3,8,6.6,11,2.6c2.4-3.3,3-9.6,3.6-13.5
				c1.3-7.8-2.8-14.8-7.5-20.7c-8.8-11.1-17.3-22.5-25.9-33.9c-22.8-30-45.4-60.1-68.1-90.3c-1.5-2-3-4-4.6-6.1
				c-0.9,3.7-1.7,7.3-2.6,11c19.4,21.1,38.8,42.3,58.2,63.4c2.8,3.1,5.6,6.2,8.5,9.2c-0.3-0.4,1.2-4.8,1.3-5.5
				c0.4-1.5,1.5-3.9,1.2-5.5c-2.3-15.7-4.4-31.4-6.3-47.1c-1.5-12.7-2.9-25.4-4-38.1c-0.8-9.4-1.7-19-1-28.5
				c0.1-0.8,0.2-1.6,0.2-2.3c0.1-1.7,1.2-5.5-0.9,3.6c-1.2,4.7-1.6,6.1-1,4.2c0-0.1,0.1-0.2,0.1-0.4c0.2-0.1,0.3-0.8,0.6-1
				c1.1-0.6,2.2-1.4,3.4-2c6.3-3.6,12.6-7.3,18.9-10.9c0.7-0.4,1.1-4.6,1.3-5.5c0.2-0.8,0.5-5.1,1.2-5.5
				c-5.9,3.4-11.9,6.8-17.8,10.2c-5,2.9-5.2,3.4-6.5,8.9c-2.2,9.2-2.6,17.5-2.1,26.9c1.3,26,4.8,52,8.3,77.8
				c0.9,6.8,1.9,13.7,2.9,20.5c0.9-3.7,1.7-7.3,2.6-11c-19.4-21.1-38.8-42.3-58.2-63.4c-2.8-3.1-5.6-6.2-8.5-9.2
				c0.3,0.4-1.2,4.8-1.3,5.5c-0.2,0.8-1.8,4.8-1.2,5.5c17,22.7,34.1,45.3,51.2,67.9c11.5,15.3,23.1,30.5,34.7,45.7
				c3.7,4.8,7.3,9.6,11,14.4c3.9,5,7.7,9.8,9,16.2c0.2,1,0.3,2.1,0.4,3.2c0.2,6.2,0.9-5.7,1.9-6.1c-1.2,0.4-1.4,2.5-3.4,2.8
				c-5.3,0.7-10.9-6.6-13.7-10.1c-6.1-7.6-9.7-17-11.9-26.4c-5.4-22.4-4.4-46.3-2.2-69.1c1.8-19.1,5.2-38,8.1-56.9
				c0.3-1.7,2.5-9.7,0.9-11.2c-1.2-1.1-4.7,2.2-5.6,2.8c-11.1,8.5-21.1,18.5-31.3,28c-14.3,13.4-28.4,27-42.6,40.6
				c-12,11.4-24,22.9-36.5,33.8c-3.1,2.7-6.4,6.1-10.1,8c-0.7,0.4-1.3,0.5-2,0.7c-0.2,0.1-0.4-0.8-0.4-0.8c0,0,0-0.6,0-0.6
				c0.6,0.1-3.4,11.2-2.1,9.2c5.7-8.9,12.3-16.7,19.7-24.3c12.5-13,25.5-25.5,38.8-37.7c26.6-24.7,53.7-48.9,82-71.6
				c5.4-4.3,11-8.4,16.8-11.9c0,0,0.1,0.2,0.1,0.2c-1.6,0.9,4.4-13.4,2.3-9.9c-0.4,0.6-0.6,1.3-1,1.9c-1.1,1.9-2.4,3.8-3.7,5.6
				c-4.1,5.8-8.4,11.5-12.7,17.1c-21.5,27.8-43.9,54.8-66.3,81.8c-1.6,1.9-3.2,3.9-4.8,5.8c-0.9,1.1-1,4.1-1.3,5.5
				c-0.2,0.8-0.5,5.1-1.2,5.5c23.7-12.8,47.3-25.6,71-38.4c3.4-1.9,6.9-3.7,10.3-5.6c0.8-0.4,2.4-11,2.6-11
				c-28.8-10.5-57.5-21-86.3-31.5c-4.1-1.5-8.3-3-12.4-4.5c0.5,0.2-3.3,10.6-2.6,11c39.2,21.1,78.4,42.1,117.6,63.2
				c5.5,2.9,10.9,5.9,16.4,8.8c0.9-3.7,1.7-7.3,2.6-11c-23-6.5-46-13.1-69-19.6c-36.6-10.4-73.3-20.8-109.9-31.2
				c-8.4-2.4-16.8-4.8-25.2-7.2c0.3,0.1-3.1,10.7-2.6,11c18.3,8.4,36.7,16.8,55,25.2c29.2,13.4,58.4,26.8,87.6,40.2
				c6.7,3.1,13.4,6.1,20,9.2c-0.8-0.4,3.3-9.9,2.6-11c-27.3-40.3-54.5-80.6-81.8-120.9c-3.9-5.7-7.7-11.4-11.6-17.1
				c0.4,0.6-1.2,4.7-1.3,5.5c-0.3,1.3-1.7,4.2-1.2,5.5c14.8,43.9,29.6,87.8,44.5,131.6c2.1,6.1,4.1,12.2,6.2,18.4
				c-0.4-1,1.1-4.3,1.3-5.5c0.4-1.7,1.2-3.7,1.2-5.5c-0.4-36.2-0.8-72.5-1.2-108.7c-0.1-5.1-0.1-10.2-0.2-15.3c0,3.5-2.1,7.4-2.6,11
				c-4.9,36-9.7,72.1-14.6,108.1c-0.7,5.1-1.4,10.1-2.1,15.2c0.9-3.7,1.7-7.3,2.6-11c2.7-49,5.5-97.9,8.2-146.9
				c0.4-6.8,0.8-13.6,1.1-20.4c-0.9,3.7-1.7,7.3-2.6,11c1.6,50.4,3.1,100.7,4,151.1c0.2,13.3,0.4,26.6,0.4,39.9c0,4.3,0,8.7-0.2,13
				c0,1.3-0.1,2.6-0.2,3.9c0,0.3-0.1,0.5-0.1,0.8c-0.1,5.2,2.7-6.7,0.6-2.4c-1.1,2.3-2.1,4.5-3.7,6.5c-5.6,7.2-13.4,9.6-21.7,12.1
				c-9.7,2.9-19.4,6.2-29,9.3c-25.2,8.1-50.4,16.2-75.7,24.3c-0.5,0.2-1.2,4.8-1.3,5.5C27.6,323.1,27.1,327.8,26.6,327.9L26.6,327.9
				z"/>
		</g>
	</g>
	<ellipse transform="matrix(0.5852 -0.8109 0.8109 0.5852 22.142 186.207)" class="st5" cx="193.1" cy="71.5" rx="19.8" ry="13.5"/>
	
		<ellipse transform="matrix(3.545278e-02 -0.9994 0.9994 3.545278e-02 235.3504 389.434)" class="st5" cx="319.4" cy="72.8" rx="19.8" ry="13.5"/>
</g>
</svg>
