<?xml version="1.0" encoding="utf-8"?>
<!-- Generator: Adobe Illustrator 21.1.0, SVG Export Plug-In . SVG Version: 6.00 Build 0)  -->
<svg version="1.1" xmlns="http://www.w3.org/2000/svg" xmlns:xlink="http://www.w3.org/1999/xlink" x="0px" y="0px"
	 viewBox="0 0 445.2 431.5" style="enable-background:new 0 0 445.2 431.5;" xml:space="preserve">
<style type="text/css">
	.st0{fill:#EEEEEE;}
	.st1{fill:none;}
	.st2{fill:#020203;}
	.st3{font-family:'Helvetica';}
	.st4{font-size:28px;}
	.st5{fill:none;stroke:#020203;stroke-width:4;stroke-miterlimit:10;}
	.st6{fill:#010202;}
</style>
<g id="Calque_2">
	<rect x="-32.8" y="-30.7" class="st0" width="498" height="472"/>
</g>
<g id="Calque_1">
	<rect x="17.7" y="370.9" class="st1" width="410" height="47"/>
	<text transform="matrix(1 0 0 1 286.1222 391.0229)" class="st2 st3 st4">Connivence</text>
	<g>
		<g>
			<path class="st2" d="M429.3,351.5c-49.9-0.1-99.8-0.3-149.7-0.4c-8.4,0-17,0.4-25.4-0.1c-1.5-0.1-1.3,0.3-1.8-0.6
				c-0.9-1.6,0-6.1,0-7.9c-0.2-28.1-0.3-56.1-0.5-84.2c-0.1-23.6-0.3-47.2-0.4-70.8c-1.1,2.3-2.1,4.5-3.2,6.8
				c23.6-11,48.3-29.1,60.2-52.8c8-15.9,12-32.3,3.9-49.2c-8.6-18-27.1-29.2-45.4-35.4c-37.2-12.5-79-6.5-112.5,13.4
				c-16.3,9.7-29.6,22.9-37.8,40.1c-4,8.3-7.3,16.6-8.8,25.7c-1.4,8.5-2.1,17.6,1.8,25.6c7.2,14.6,23.2,24.1,37.2,31.2
				c11.5,5.9,23.6,10.8,35.9,14.7c0.7,0.2,1.4,0.4,2.1,0.6c0.4,0.1,2.9-6.9,3.2-6.8c-22.5-6.6-46.8-16.8-64.3-32.8
				c-5.2-4.8-10-10.4-12.3-17.2c-2.7-7.9-1.4-17.3,0.2-25.3c0.5-2.5,1.1-4.9,1.9-7.3c0.4-1.2,0.8-2.3,1.2-3.5
				c-0.2,0.5,2.5-5.7,0.7-2.1c2.2-4.5,5.1-8.7,8.2-12.6c5.5-7,12.2-13,19.4-18.2C171.7,61.9,210,52.9,245,59.1
				c33.8,5.9,76.8,30.1,67.4,70.9c-0.6,2.8-1.6,5.4-2.6,8c-1.4,3.7,2.3-4.2,0.3-0.7c-0.7,1.2-1.4,2.4-2.1,3.6
				c-2.7,4.3-5.9,8.4-9.3,12.2c-6.2,6.8-13.2,12.9-20.7,18.3c-8.4,6.1-17.4,11.8-26.8,16.2c-0.8,0.4-3.2,5.9-3.2,6.8
				c0.3,49.5,0.6,99,0.9,148.5c0,3.9,0,7.8,0.1,11.6c0,0.7-0.3,3,0.1,3.4c0.7,0.6,4.9,0,5.7,0c4.4,0,8.7,0,13.1,0
				c30.1,0.1,60.2,0.2,90.4,0.3c22.6,0.1,45.1,0.1,67.7,0.2C427.2,358.3,428.3,351.5,429.3,351.5L429.3,351.5z"/>
		</g>
	</g>
	<g>
		<g>
			<path class="st2" d="M40.7,357.6c19.8,0,39.5,0,59.3,0c31.5,0,63,0,94.5,0c7.2,0,14.5,0,21.7,0c0.5,0,3.9-5.8,3.9-6.4
				c-0.1-37.8-0.2-75.5-0.4-113.3c0-10.2-0.1-20.4-0.1-30.6c0-3.4,0-6.8,0-10.2c0-1.4,0.6-4.4,0-5.7c-0.9-2-7.4-2.3-9.8-2.8
				c-10.7-2.6-21.2-6.1-31.1-10.8c-11.4-5.3-22.7-12.4-30.3-22.7c-8.5-11.4-10.1-26.1-7.4-39.8c0.7-3.4,1.6-6.7,2.8-9.8
				c0.6-1.6,1.3-3.1,2-4.7c0.4-0.9,0.9-2.8,1.8-3.4c-0.5,0.8-0.9,1.5-1.4,2.3c0.6-0.9,1.2-1.8,1.9-2.6c4.5-5.9,10-10.9,16.2-14.9
				c14.8-9.6,32.8-13.1,50.3-12.5c28.3,1,62.9,9.8,72.8,39.9c3.3,10.2,4,22.5,1.2,32.9c-0.6,2-1.3,4-2.1,5.9
				c-0.3,0.8-0.7,1.6-1.1,2.3c-3.3,6.6,2-1.9-0.9,1.5c-3.1,3.6-5.9,7.2-9.5,10.4c-6.6,5.8-14.3,10.6-22.6,13.6
				c-10.5,3.8-27.1,6.6-34.3-4.5c-5.6-8.7-4.7-20.7-2.1-30.2c0.7-2.6,1.6-5.2,2.7-7.7c0.3-0.7,2.5-4.4,2.3-4.7
				c0.2,0.5-3.3,4.5-0.5,1c0.6-0.7,1.1-1.4,1.6-2c3.5-4.1,8-7.6,13.1-9.3c10.4-3.5,27.1,0.2,26.5,13.7c-0.1,2.2-0.6,4.3-1.3,6.3
				c-0.3,0.9-0.8,1.8-1.2,2.7c-1,2.9,2.8-4.4,2.8-4.5c-0.2,0.1-0.3,0.3-0.4,0.5c-1.9,1.4-2.1,5-3.9,6.4c2.3-1.7,4.2-6.2,5.5-8.8
				c2.1-4.3,3.4-9.7,1.8-14.4c-4.6-13.2-24.5-11-33.4-4.3c-8.6,6.4-15.1,18-18.5,28c-3.5,10.2-5.2,23.8,0.9,33.4
				c7.8,12.5,27,8.1,38.1,3.3c15.6-6.8,26.7-18.6,35.2-33c13.2-22.4,7.3-53.7-13.7-69.1c-15.2-11.1-35.1-14.7-53.5-15.6
				c-18.8-0.9-38.2,2.9-53.8,13.8c-22.7,15.8-39.2,50.8-26.1,77.4c11.4,23.3,40.9,34.1,64.4,40c3,0.8,6.9,1,9.7,2.2
				c1.6,0.7,0.8-0.2,1.3,1.2c0.6,1.8,0,4.9,0,6.8c0,4,0,8.1,0,12.1c0.1,45.7,0.3,91.5,0.4,137.2c0,1.1,0,2.3,0,3.4
				c1.3-2.1,2.6-4.3,3.9-6.4c-19.8,0-39.5,0-59.3,0c-31.5,0-63,0-94.5,0c-7.2,0-14.5,0-21.7,0C43.3,351.2,42,357.6,40.7,357.6
				L40.7,357.6z"/>
		</g>
	</g>
	<line class="st5" x1="251.8" y1="189.4" x2="250.2" y2="358.1"/>
	
		<ellipse transform="matrix(0.5852 -0.8109 0.8109 0.5852 -12.2507 267.5554)" class="st6" cx="255.4" cy="145.8" rx="19.8" ry="13.5"/>
	
		<ellipse transform="matrix(0.1769 -0.9842 0.9842 0.1769 -47.2565 356.33)" class="st6" cx="189.4" cy="206.4" rx="13.5" ry="19.8"/>
</g>
</svg>
