<?xml version="1.0" encoding="utf-8"?>
<!-- Generator: Adobe Illustrator 21.1.0, SVG Export Plug-In . SVG Version: 6.00 Build 0)  -->
<svg version="1.1" xmlns="http://www.w3.org/2000/svg" xmlns:xlink="http://www.w3.org/1999/xlink" x="0px" y="0px"
	 viewBox="0 0 479.4 480" style="enable-background:new 0 0 479.4 480;" xml:space="preserve">
<style type="text/css">
	.st0{fill:#EEEEEE;}
	.st1{fill:none;}
	.st2{fill:#020203;}
	.st3{font-family:'Helvetica';}
	.st4{font-size:23px;}
	.st5{fill:none;stroke:#020203;stroke-width:4;stroke-miterlimit:10;}
</style>
<g id="Calque_2">
	<rect class="st0" width="480" height="480"/>
</g>
<g id="Calque_1">
	<rect x="21.6" y="356" class="st1" width="410" height="47"/>
	<text transform="matrix(1 0 0 1 295.8701 372.5137)" class="st2 st3 st4">Sophistication</text>
	<g>
		<g>
			<path class="st2" d="M51.1,339.6c45.4,0,90.8,0,136.2,0c15.2,0,30.3-0.3,45.5,0c3.4,0.1,6.7-0.2,9.6-2.1c4.4-2.9,5.9-9,7.2-13.8
				c2.6-9.8-2.1-19.7-1.5-29.7c0.1-2.4,0.5-4.8,1-7.2c1.5-6.5-1.8,3.5,0-0.3c0.5-1.1,0.9-2.2,1.4-3.3c1.4-3.3,2.9-6.6,4.1-10
				c3.1-8.7,6.1-17.9,5.4-27.3c-0.2-2.9-0.9-5.7-1.5-8.5c-0.1-0.4,0.2-1.1,0-1.4c0.3,0.7-2.7,7.6-0.9,3.7c0.5-1.1,0.8-2.2,1.2-3.3
				c1.1-3.2,2.2-6.4,3.1-9.7c0.9-3.5-3,6-0.4,1.4c0.4-0.7,0.7-1.5,1.2-2.2c1-1.6,2.3-2.9,3.9-3.8c6.8-3.3,21.6,2.9,19.7,11.7
				c0.4-1.2,0.8-2.4,1.1-3.6c-0.1,0.2-0.2,0.5-0.2,0.7c0.4-1.2,0.8-2.4,1.2-3.5c-1.4,3.2-4.9,6-8.6,5.9c-3.2-0.1-6.3-2.9-8.7-4.8
				c-9.7-7.8-18.4-16.8-28.7-24c-9.9-6.9-20.7-10.9-32.4-13.3c-10.1-2.1-20.8-3.7-31.1-2.6c-3.1,0.3-7,0.8-9.4,2.9
				c-2.2,1.9-2.8,5.5-3.6,8.1c-2.2,7.4,6.6,13.7,12,17.3c11.8,7.7,26.2,9,39.8,6.7c10.7-1.8,23-5.9,29.2-15.5
				c4.7-7.3,6.9-17.7,4.9-26.1c-2.5-10.5-9.4-21.2-21.5-17.1c-13.3,4.5-19.9,14.9-24,27.6c-2.7,8.3-4.4,17-0.8,25.3
				c2.4,5.7,6.9,10.3,12.1,13.6c5.6,3.6,11.2,6.6,14.5,12.7c1.2,2.2,2,4.6,2.3,7.1c0.2,1.3,0.2,2.7,0.1,4c0,0.5-0.2,1-0.2,1.5
				c-0.1,3.2-0.7-1.3,0.5-1c0.1,0-3.2,5.3-3.6,5.7c-1.3,1.6-2.9,3.2-4.7,4.3c-6.5,4.1-16.6,2.8-23.7,1.8c-10-1.5-20.3-4.7-28.5-10.7
				c-8.4-6.1-11.2-14.9-11-25.1c0-1.2,0.1-2.4,0.3-3.6c0-0.4,0.3-1.1,0.2-1.5c-0.3-1.4-1.3,1.8-0.3,0.9c1.6-1.4,2.5-4,4.1-5.5
				c3.8-3.7,8.8-5.8,13.8-7c14.2-3.6,29.7-1.8,44.2-1.1c30.2,1.4,62.2,1.4,85.9-20.1c16.4-14.8,29-40.9,22.6-63.2
				c-3.7-12.8-14.1-27.1-26.6-32.5c-8.5-3.7-16.5-0.4-23.9,4c-7,4.2-14.3,9.2-22.9,7.7c-11.8-2-16.6-10-20.8-20.1
				c-3.4-8.2-11.1-18.2-21.1-17.8c-9.6,0.4-12.8,14.5-15,21.8c-3.8,12.3-2.8,25.3-3.3,38c-0.1,2.9-0.3,5.9-0.7,8.8
				c-0.1,0.6-0.2,1.1-0.3,1.7c-0.2,3.5,0.4-1.7,0.6-1.3c0.2,0.3-1.8,3.2-2,3.5c-3.4,5.1-8.1,9.5-13.3,12.7c-5.7,3.4-12.4,5.2-19,3.8
				c-6.7-1.4-12.2-6.1-17.3-10.4c-4.9-4.1-9.6-8.5-14.7-12.3c-3.6-2.7-8.2-5.9-13-5.5c-8.8,0.7-11.6,14.9-13.3,21.8
				c-3.5,14-1.5,28.1-1.4,42.3c0,2.3-0.6,5.1-0.4,7.3c0.2,2,2.2-3.2,0.9-2.5c-0.2,0.1-0.4,0.7-0.6,0.9c-0.7,0.6-1.3,1.3-2.1,1.7
				c-3.4,1.7-9,1.5-12.6,0.6c-10.8-2.7-9-16.5-7.4-24.8c3.1-16.3,11.9-30.5,18.9-45.3c2.5-5.2,5.2-11.3,11.2-13.1
				c4.4-1.3,9.2,0.1,13.6,0.6c7.2,0.9,14.5-0.5,21.7-1.3c1.1-0.1,1.4-7,2.4-7.1c-6.1,0.7-12.4,2-18.5,1.6c-8.4-0.5-17-4.1-23.2,3.6
				c-4,4.9-6.2,11.6-9,17.2c-2.9,5.9-6,11.7-8.6,17.7c-4,9-7.3,18.4-9.7,28c-1.9,7.7-5.6,22,2,28c4.4,3.5,15.6,4.2,19.2-0.5
				c3.7-4.8,4.7-13.2,4.6-19c-0.1-12.2-1.7-24.3,0.1-36.4c0.3-2.1,0.8-4.2,1.3-6.4c0.8-3.5,0.3-0.8,0.1-0.3c0.3-0.6,0.5-1.2,0.9-1.7
				c1.2-1.8,2.3-3.6,4.2-4.7c3.3-1.9,7.1-0.9,10.3,0.7c9.6,4.7,17.1,13.4,25.5,19.9c10.3,7.9,21.6,9.4,32.8,2.1
				c7.7-5,13.3-12.1,16.1-20.7c3-9,3.2-17.9,3.3-27.3c0.1-6.3,0.1-12.6,0.9-18.9c0.2-1.4,0.4-2.7,0.6-4.1c0.2-0.8,0.4-1.7,0.6-2.5
				c0.7-3.7-0.3,1.7-0.6,1.7c0,0,3.8-7.6,4.5-8.5c6.2-7.7,16-2.6,21.9,3c6,5.6,7,14.3,11.5,21c4.8,7.3,14.5,11.5,23.2,9.7
				c7.2-1.5,13.1-6.4,19.5-9.7c6.8-3.6,14-4.9,21.1-1.4c11,5.3,20.3,17.4,24.5,28.6c2.1,5.6,3.1,11.7,2.8,17.7
				c-0.1,2.7-0.5,5.4-1.1,8c0,0.2-1.2,4.2-0.3,1.6c0.9-2.6-0.6,1.3-0.7,1.5c-0.6,1.5-1.4,2.9-2.1,4.3c-5.5,10.3-13.8,19-23.4,25.7
				c-22.7,15.7-51.6,14.9-78,13.7c-13.1-0.6-26.6-1.9-39.6,0.2c-8.9,1.4-18.2,5-22.5,13.5c-6.7,13.2-7.8,32.1,4.6,42.3
				c12.2,9.9,32.6,15,48,12.1c7-1.3,11.8-6.6,14.5-13c2.7-6.4,5.3-13.9,3.3-20.9c-3.5-12-16.3-14.6-23.7-23.2
				c-5.8-6.7-7.6-15.5-6-24.1c0.1-0.5,0.2-0.9,0.3-1.4c0.5-2.9,1.4-0.6-0.5,1c0.6-0.5,0.9-2.2,1.2-2.9c0.7-1.4,1.4-2.8,2.2-4.2
				c1-1.6,2.1-3.3,3.4-4.6c4.1-3.9,9.3-7.6,14.6-9.5c9.7-3.5,16.6,2.5,20.1,11.3c2.1,5.3,2.8,10.4,2.4,16.1c0,0.4-0.4,1.3-0.3,1.6
				c-0.1-0.4,1.9-3.8,0.8-2.6c-0.6,0.7-1,1.9-1.6,2.7c-1.4,2.1-3.1,3.9-5,5.5c-8,6.6-19,9.3-29.1,10.3c-12,1.2-24.3-0.8-34.6-7.4
				c-4.5-2.9-13.7-9.4-12.4-15.8c-0.1,0.4-0.2,0.7-0.3,1.1c0-0.1,0.1-0.3,0.1-0.4c-0.7,2-1.4,4-2,6.1c2.9-6.5,15.7-5.4,21.2-5.1
				c11.2,0.5,22.5,2.6,33.1,6c13.2,4.2,24.1,12.6,34.5,21.6c4.5,4,8.9,8.1,13.6,11.9c2.5,2.1,5.8,5.2,9.3,5.5
				c7.2,0.5,11.7-9.5,11.6-15.5c-0.1-5.8-7-9-11.7-10.2c-4.7-1.2-9-0.4-11.9,3.7c-2.1,3.1-3.1,7.1-4.3,10.6
				c-0.6,1.8-1.1,3.5-1.6,5.3c-0.1,0.3-0.5,1.4-0.4,1.5c-0.1-0.3,2.3-5.2,1.1-3.6c-0.4,0.6-0.8,1.6-1.1,2.3c-1.1,2.7-2.6,6-2.8,9
				c-0.2,3.1,1.3,6.3,1.5,9.4c0.2,3.3-0.1,6.6-0.5,9.8c-0.3,2.1-0.8,4.1-1.3,6.2c-0.5,2.2-1.1,0.4,0.5-1.3c-0.4,0.4-0.6,1.5-0.8,2.1
				c-1.8,4.6-3.9,9.1-5.6,13.8c-1.5,4.3-3,8.7-3.8,13.2c-1.2,7.5,0.1,14.6,1.3,21.9c0.5,3.1,0.3,6,0.3,9.2c0,0.7-0.7,2.6,0.4-0.6
				c1.1-3.2,0.5-1.1,0-0.6c-0.6,0.7-1,1.5-1.7,2.1c-2.1,2.1-4.9,3.1-7.8,3.4c-1.8,0.2-3.7,0-5.5,0c-29.8-0.2-59.6,0-89.5,0
				c-18.8,0-37.5,0-56.3,0c-6.9,0-13.9,0-20.8,0c-3.8,0-7.8-0.5-11.6,0c-0.5,0.1-1.1,0-1.6,0C52.6,332.4,51.8,339.6,51.1,339.6
				L51.1,339.6z"/>
		</g>
	</g>
	<ellipse transform="matrix(0.759 -0.651 0.651 0.759 -36.7977 123.5882)" class="st2" cx="148.6" cy="111.5" rx="20.3" ry="11.7"/>
	<ellipse transform="matrix(0.759 -0.651 0.651 0.759 -111.5173 286.7022)" class="st2" cx="331.6" cy="294" rx="20.3" ry="11.7"/>
	<path class="st5" d="M429.2,335.5h-97.5c0,0-28.7,3-21-11c5.5-10,28-1.5,15.5-20c-6.3-9.3-0.5-8.5-0.5-8.5"/>
</g>
</svg>
