<?xml version="1.0" encoding="utf-8"?>
<!-- Generator: Adobe Illustrator 21.1.0, SVG Export Plug-In . SVG Version: 6.00 Build 0)  -->
<svg version="1.1" id="Calque_1" xmlns="http://www.w3.org/2000/svg" xmlns:xlink="http://www.w3.org/1999/xlink" x="0px" y="0px"
	 viewBox="0 0 1732.9 5888.7" style="enable-background:new 0 0 1732.9 5888.7;" xml:space="preserve">
<style type="text/css">
	.st0{fill:#FFED00;}
</style>
<g>
	
		<ellipse transform="matrix(0.2275 -0.9738 0.9738 0.2275 568.6422 1437.2546)" class="st0" cx="1190.1" cy="360.2" rx="298.3" ry="136.2"/>
	<g>
		<g>
			<path class="st0" d="M1094.1,633.4c37.9-63.2,75.8-126.4,113.8-189.6c0,0,0,0,0,0.1c-0.9,1.2-1.7,2.5-2.7,3.6
				c-1.7,2.1-3.4,4.3-5.2,6.4c-4.1,4.9-8.5,9.6-13,14.2c-10.9,11.1-22.6,21.3-34.5,31.3c-29.8,24.9-61.2,48-92.2,71.4
				c-81.1,61-161.2,123.3-233.7,194.6c-126.4,124.2-213.7,274.6-301.9,427.4c-71.1,123.1-117.1,256.2-131.3,398
				c-13,128.9,1.9,256.1,54.5,375.2c47.1,106.7,118.4,200.4,195.9,286.6c76.1,84.7,159,162.9,236.8,246.1
				c70.5,75.5,138.9,156.6,182.3,251.3c43.3,94.6,54.2,198.1,31.3,299.6c-7.4,32.9-17.5,65.2-30,96.5c-5.5,13.7-11.4,27.2-17.9,40.5
				c-3.9,8-8.1,15.9-12.3,23.8c-15.5,29.2-40.5,68,45.6-75.5c50.6-82,65.7-107.3,45.2-75.8c-1.1,1.7-2.2,3.4-3.4,5
				c-33.7,50.1-74.6,95.2-118.7,136.3c-173.1,161.7-403.7,260.7-552.1,449.1c-19.8,25.2-37.2,51.9-54,79.1
				c-43.6,70.5-88.9,141.1-127.2,214.7c-27.4,52.8-46.1,109.3-55.3,168.1c-23.4,149.5-13.1,312.9,25.5,458.9
				c38.3,145.1,112.6,279.7,224.3,381.1c101.8,92.5,228.6,142.8,348.6,206.1c123.7,65.3,245.1,140,345.4,238.4
				c92.6,91,184,220.2,182.5,355.9c-0.3,27.3-4.9,54.5-13.5,80.4c-3.8,11.3-8.2,22.4-13.5,33.1c-1.6,3.3-3.4,6.5-5,9.8
				c-10.8,21.8,113.4-186.9,104.6-174.4c-4.6,6.5-9.1,13-14,19.3c-32.1,41.2-72.2,75.8-115,105.5c-64.9,45.1-136.5,79.2-209.9,107.9
				c-5.2,2-12.4,3.5-17,6.8c-13.3,9.5-23.9,37.1-32.3,50.9c-30.5,50.1-62.5,99.9-90.2,151.6c-7.3,13.7,11-16.3,7-9.9
				c12.7-20.2,25-40.7,37.4-61.2c25.4-42,52.1-83.7,75.2-127c0,0,0-0.1,0.1-0.1c-40.5,67.3-81,134.6-121.6,201.9
				c11.8-9.7,34.4-13.7,48.4-19.5c37.2-15.4,73.6-32.5,108.8-52c43.5-24.1,85.5-51.7,123.1-84.3c53.9-46.7,89.1-102.7,125.9-163.4
				c35.2-58.2,76.3-116.5,103.2-179.4c10.2-23.9,17.1-49.1,20-74.9c7.1-62.6-10.4-124.5-35.8-181.2
				c-59.2-132.2-168.6-235-285.5-316.9c-106.6-74.7-222.9-133.6-339.4-190.9c-137.2-67.5-255.8-155.9-338.7-286.6
				c-81-127.7-120.4-277.4-131.8-427.2c-10.5-137.6-8.5-286.7,52.3-413.5c3.1-6.4,6.4-12.7,9.7-19c39.5-75.3-139.3,224.2-94.6,157.2
				c8.5-12.8,17.4-25.3,26.9-37.5c17.3-22.1,36-43.1,55.8-63.1c41.1-41.6,86.4-78.9,133.1-114c96.2-72.4,198.4-136.5,292.5-211.8
				c47.3-37.9,92.6-78.7,132.9-124.1c69.9-78.8,120.7-173,174-263.2c67.2-113.5,123.3-234.7,115.4-369.9
				c-12.5-214.8-182-376.7-323.8-520.4c-161.8-163.9-331.5-338.9-379.6-572.7c-28.2-137-12.8-283.9,27.4-416.9
				c10.2-33.6,22.2-66.7,36.1-99c19-44.2,89.8-164.7-2.2-11.2c-116.5,194.3-58.3,94.9-43.1,72.2c1.7-2.6,3.4-5.2,5.1-7.8
				c4.5-6.9,9.1-13.7,13.8-20.4c9.6-13.8,19.6-27.3,29.9-40.6c18.1-23.4,37.1-46,57-67.9c71.8-79.4,153.8-148.6,238.7-213.6
				c59.7-45.7,125.8-87.7,178-142.2c8.5-8.9,16.2-18.2,23-28.4c44.8-66.3,85.8-137.2,124.4-207.2c7.6-13.7-11.1,16.5-7,9.9
				c-12.7,20.2-25,40.7-37.4,61.2C1144,548.5,1117.8,590.4,1094.1,633.4L1094.1,633.4z"/>
		</g>
	</g>
</g>
</svg>
