<?xml version="1.0" encoding="utf-8"?>
<!-- Generator: Adobe Illustrator 21.1.0, SVG Export Plug-In . SVG Version: 6.00 Build 0)  -->
<svg version="1.1" xmlns="http://www.w3.org/2000/svg" xmlns:xlink="http://www.w3.org/1999/xlink" x="0px" y="0px"
	 viewBox="0 0 383 389" style="enable-background:new 0 0 383 389;" xml:space="preserve">
<style type="text/css">
	.st0{fill:#020203;}
	.st1{fill:#FFFFFF;}
	.st2{fill:none;}
	.st3{font-family:'Helvetica';}
	.st4{font-size:24.2244px;}
</style>
<g id="Calque_2">
	<rect x="-10.4" y="-4.5" class="st0" width="403.8" height="403.8"/>
</g>
<g id="Calque_1">
	<g>
		
			<ellipse transform="matrix(0.3977 -0.9175 0.9175 0.3977 8.2469 203.1018)" class="st1" cx="158.8" cy="95.3" rx="18.9" ry="10.9"/>
		
			<ellipse transform="matrix(0.4818 -0.8763 0.8763 0.4818 14.4629 157.2363)" class="st1" cx="140.2" cy="66.4" rx="18.9" ry="10.9"/>
		<g>
			<g>
				<path class="st1" d="M132.5,74.9c-0.1,43.5-0.2,87-0.3,130.5c-0.1,22.4-0.1,44.9-0.2,67.3c0,5.6,1,13.4-2.8,17.9
					c-2.9,3.3-8.3,2.3-12.3,2.3c-5.7,0-11.3,0-17,0c-26.7,0-53.4,0-80.2,0c1.6,0,3.2,1,4.7,1c23.2,0,46.4,0,69.5,0
					c11.1,0,22.2,0.1,33.4,0c9.2-0.1,9.4-9.4,9.4-16.6c0.1-49.4,0.2-98.8,0.3-148.2c0-17.8,0.1-35.5,0.1-53.3
					C137.2,75.6,132.5,75.2,132.5,74.9L132.5,74.9z"/>
			</g>
		</g>
		<rect x="-4" y="317.2" class="st2" width="375.5" height="43.8"/>
		<text transform="matrix(1 0 0 1 317.4082 334.5729)" class="st1 st3 st4">Désir</text>
		<g>
			<g>
				<path class="st1" d="M154.3,102.7c0,13-1.7,25.9-2.2,38.8c-0.7,16.3-0.1,32.8,3.5,48.8c4.1,18.1,12.4,36.4,23.7,51.2
					c13.8,18.1,33.3,30.6,54.3,38.9c38.2,15.1,80.6,18.2,121.2,18c-1.4,0-2.9-8.9-4.5-8.9c-36,0.1-72.9-2.4-107.5-13.2
					c-21.9-6.8-43.2-17.4-59.5-33.9c-6.6-6.7-12-14.1-16.6-22.2c-2.5-4.4,2.7,6.1,0.8,1.5c-0.4-0.9-0.8-1.8-1.2-2.7
					c-0.9-2.2-1.8-4.5-2.6-6.8c-1.3-3.8-2.4-7.7-3.4-11.6c-3.7-15.5-4.4-31.4-3.9-47.3c0.4-13.9,2.3-27.7,2.3-41.6
					C158.8,108.6,154.3,105.6,154.3,102.7L154.3,102.7z"/>
			</g>
		</g>
		<circle class="st0" cx="-144" cy="10.5" r="0"/>
	</g>
</g>
</svg>
