<?xml version="1.0" encoding="utf-8"?>
<!-- Generator: Adobe Illustrator 21.1.0, SVG Export Plug-In . SVG Version: 6.00 Build 0)  -->
<svg version="1.1" id="Calque_1" xmlns="http://www.w3.org/2000/svg" xmlns:xlink="http://www.w3.org/1999/xlink" x="0px" y="0px"
	 viewBox="0 0 1732.9 4000" style="enable-background:new 0 0 1732.9 4000;" xml:space="preserve">
<style type="text/css">
	.st0{fill:#FFED00;}
</style>
<g>
	
		<ellipse transform="matrix(0.2275 -0.9738 0.9738 0.2275 568.6422 1437.2546)" class="st0" cx="1190.1" cy="360.2" rx="298.3" ry="136.2"/>
	<g>
		<g>
			<path class="st0" d="M1094.1,633.4c-37.6,68.9,159.6-255.2,112-187.1c0.8-1.2,1.7-2.3,2.5-3.5c-34,47.7-88,82.5-134.1,117.2
				c-71.2,53.5-142.1,107.3-207.9,167.4c-80.1,73.1-151.8,154.9-210.1,246.5c-49.3,77.6-96.8,156.7-142,236.7
				c-14.7,26-28.4,52.6-40.8,79.7c-26,57.1-46.2,116.8-60.3,177.9c-28.3,123.1-36,254.2-6.3,377.8c24.7,102.6,73.9,197,135.3,282.2
				c120.8,167.6,284.2,297.2,414.1,456.9c57.5,70.7,108.3,149.2,133.3,237.7c25.7,91.2,20.4,188.4-9.8,277.9
				c-6.6,19.6-14.6,38.8-23.8,57.3c0.6-1.3,1.3-2.6,1.9-3.8c-1.7,3.4-3.4,6.8-5.2,10.1c-0.9,1.7-1.8,3.3-2.7,5
				c-17.6,31.5-0.9,3.8,50-83.3c17.6-30.9,35.9-61.3,54.9-91.3c-1,1.5-2,3.1-3,4.6c-2.1,3-4.1,6-6.1,9c0.8-1.2,1.7-2.3,2.5-3.5
				c-101.4,143.4-277.8,199.5-433.1,263.2c-82.4,33.8-164.4,70.6-237.3,122.4c-37.3,26.5-71.9,56.8-102.1,91.2
				c-15.7,17.9-30.1,36.8-43.5,56.5c-51.4,75.8-97.8,156.3-142.5,236.2c-69.5,124.2-90.5,266.9-90.7,407.5
				c0-4.2,18.9-29.9,18.8-29.7c14.8-24.1,29.4-48.3,44-72.6c14.5-24.3,29.1-48.5,43.4-72.9c4.2-7.2,17.3-22.5,17.4-30.6
				c0.2-130.1,17.6-263.1,76.5-380.6c-0.6,1.3-1.3,2.6-1.9,3.8c2-3.9,4-7.8,6.1-11.7c1-1.9,2.1-3.8,3.1-5.7
				c16.2-30.1,39.6-66.5-46.6,77.4c-16.5,28.9-33.6,57.4-51.3,85.6c-1.8,2.9-2.1,3.3-0.7,1.1c1.2-1.7,2.3-3.5,3.4-5.2
				c2.6-3.9,5.2-7.7,7.9-11.6c-0.8,1.2-1.7,2.3-2.5,3.5c109.2-154.3,286-222.9,454.8-291c79.8-32.2,160.4-65.5,231.8-114.1
				c34.2-23.2,66-50.1,93.4-81.1c14.6-16.6,27.8-34.4,39.8-52.9c29.3-45.1,56.4-91.7,84-137.9c18.1-30.4,36.9-60.5,53.4-91.9
				c47.7-90.6,67.1-198,50.1-299.2c-16.7-99.4-68-188.2-129.3-266.7c-139-178.2-323.1-316.7-449.7-505.4
				c-66.4-98.9-113.8-209.9-128.2-328.8c-17-140.6,6.7-289.5,56.5-421.5c11.5-30.6,24.8-60.5,39.4-89.7c-0.6,1.3-1.3,2.6-1.9,3.8
				c4.4-8.6,8.8-17.2,13.4-25.7c2.3-4.2,4.7-8.4,7-12.6c1.6-2.9,1.3-2.4-0.9,1.6c-26.9,46.1-54.3,91.9-82.2,137.3
				c-14.1,22.9-3,4.9,3.1-4.2c5.1-7.7,10.4-15.3,15.7-22.9c-0.8,1.2-1.7,2.3-2.5,3.5c72.2-102,161.8-189.8,258.6-268.5
				c71.7-58.3,149.5-109.4,218.9-170.4c12.6-11.1,25-22.7,35.7-35.6c7.4-8.9,13.6-18.5,19.7-28.3c40.1-64,80.4-128.7,116.6-195
				c7.5-13.7-11.1,16.4-7,9.9c-12.7,20.2-25,40.7-37.4,61.2C1144,548.5,1117.7,590.3,1094.1,633.4L1094.1,633.4z"/>
		</g>
	</g>
</g>
</svg>
